<svg xmlns="http://www.w3.org/2000/svg" viewBox="0 0 100 100" fill="currentColor">
  <defs>
    <linearGradient id="securityGrad" x1="0%" y1="0%" x2="100%" y2="100%">
      <stop offset="0%" style="stop-color:#215ae5;stop-opacity:1" />
      <stop offset="100%" style="stop-color:#4975ea;stop-opacity:1" />
    </linearGradient>
    <filter id="glow">
      <feGaussianBlur stdDeviation="2" result="coloredBlur"/>
      <feMerge> 
        <feMergeNode in="coloredBlur"/>
        <feMergeNode in="SourceGraphic"/>
      </feMerge>
    </filter>
  </defs>
  
  <!-- Shield outline -->
  <path d="M50 15 L70 25 L70 50 Q70 70 50 85 Q30 70 30 50 L30 25 Z" 
        fill="none" stroke="url(#securityGrad)" stroke-width="2" opacity="0.6"/>
  
  <!-- Shield body -->
  <path d="M50 20 L65 28 L65 50 Q65 65 50 78 Q35 65 35 50 L35 28 Z" 
        fill="url(#securityGrad)" opacity="0.8">
    <animate attributeName="opacity" values="0.8;1;0.8" dur="3s" repeatCount="indefinite"/>
  </path>
  
  <!-- Lock icon -->
  <g transform="translate(50,50)">
    <!-- Lock body -->
    <rect x="-8" y="-2" width="16" height="12" rx="2" fill="#ffffff" opacity="0.9"/>
    
    <!-- Lock shackle -->
    <path d="M-5 -2 L-5 -8 Q-5 -12 0 -12 Q5 -12 5 -8 L5 -2" 
          fill="none" stroke="#ffffff" stroke-width="2" opacity="0.9"/>
    
    <!-- Keyhole -->
    <circle cx="0" cy="2" r="2" fill="url(#securityGrad)"/>
    <rect x="-1" y="2" width="2" height="4" fill="url(#securityGrad)"/>
  </g>
  
  <!-- Security rings -->
  <g opacity="0.3">
    <circle cx="50" cy="50" r="35" fill="none" stroke="url(#securityGrad)" stroke-width="1">
      <animate attributeName="r" values="35;40;35" dur="2s" repeatCount="indefinite"/>
      <animate attributeName="opacity" values="0.3;0.1;0.3" dur="2s" repeatCount="indefinite"/>
    </circle>
    <circle cx="50" cy="50" r="45" fill="none" stroke="url(#securityGrad)" stroke-width="1">
      <animate attributeName="r" values="45;50;45" dur="2s" begin="0.5s" repeatCount="indefinite"/>
      <animate attributeName="opacity" values="0.2;0.05;0.2" dur="2s" begin="0.5s" repeatCount="indefinite"/>
    </circle>
  </g>
  
  <!-- Security indicators -->
  <g fill="url(#securityGrad)" opacity="0.6">
    <!-- Top indicators -->
    <circle cx="40" cy="25" r="1.5">
      <animate attributeName="opacity" values="0.6;1;0.6" dur="1s" repeatCount="indefinite"/>
    </circle>
    <circle cx="60" cy="25" r="1.5">
      <animate attributeName="opacity" values="0.6;1;0.6" dur="1s" begin="0.2s" repeatCount="indefinite"/>
    </circle>
    
    <!-- Side indicators -->
    <circle cx="25" cy="45" r="1.5">
      <animate attributeName="opacity" values="0.6;1;0.6" dur="1s" begin="0.4s" repeatCount="indefinite"/>
    </circle>
    <circle cx="75" cy="45" r="1.5">
      <animate attributeName="opacity" values="0.6;1;0.6" dur="1s" begin="0.6s" repeatCount="indefinite"/>
    </circle>
    
    <!-- Bottom indicators -->
    <circle cx="35" cy="70" r="1.5">
      <animate attributeName="opacity" values="0.6;1;0.6" dur="1s" begin="0.8s" repeatCount="indefinite"/>
    </circle>
    <circle cx="65" cy="70" r="1.5">
      <animate attributeName="opacity" values="0.6;1;0.6" dur="1s" begin="1s" repeatCount="indefinite"/>
    </circle>
  </g>
  
  <!-- Checkmark -->
  <g transform="translate(50,65)" opacity="0.8">
    <path d="M-4 0 L-1 3 L4 -2" fill="none" stroke="#ffffff" stroke-width="2" stroke-linecap="round">
      <animate attributeName="opacity" values="0;1;0" dur="2s" begin="1s" repeatCount="indefinite"/>
    </path>
  </g>
</svg>